<?xml version="1.0" standalone="no"?>
<!DOCTYPE svg PUBLIC "-//W3C//DTD SVG 20010904//EN"
 "http://www.w3.org/TR/2001/REC-SVG-20010904/DTD/svg10.dtd">
<svg version="1.0" xmlns="http://www.w3.org/2000/svg"
 width="1800.000000pt" height="1080.000000pt" viewBox="0 0 1800.000000 1080.000000"
 preserveAspectRatio="xMidYMid meet">
<metadata>
Created by potrace 1.16, written by Peter Selinger 2001-2019
</metadata>
<g transform="translate(0.000000,1080.000000) scale(0.100000,-0.100000)"
fill="#000000" stroke="none">
<path d="M8801 5815 c-1 -33 6 -78 14 -100 8 -22 14 -61 15 -87 0 -26 7 -73
15 -105 8 -31 15 -75 15 -96 0 -21 5 -47 10 -58 10 -18 33 -257 33 -339 0 -70
-16 -196 -28 -225 -8 -16 -16 -40 -20 -52 -3 -13 -11 -23 -16 -23 -5 0 -9 -5
-9 -10 0 -15 -61 -80 -76 -80 -6 0 -14 -7 -18 -15 -3 -8 -12 -15 -19 -15 -8 0
-28 -7 -46 -16 -27 -14 -60 -16 -199 -12 -99 3 -179 10 -197 17 -20 8 -98 13
-235 14 -176 1 -209 -1 -235 -16 -16 -9 -34 -17 -39 -17 -15 0 -106 -45 -106
-52 0 -5 -8 -8 -19 -8 -10 0 -24 -7 -31 -15 -7 -8 -18 -15 -25 -15 -8 0 -26
-6 -42 -14 -77 -38 -161 -52 -358 -62 -60 -3 -117 -7 -125 -10 -9 -3 27 -26
85 -54 93 -46 105 -49 176 -50 70 0 101 7 174 40 77 35 115 50 125 50 5 0 18
4 28 9 49 26 114 43 125 32 20 -20 7 -414 -14 -427 -5 -3 -9 -21 -9 -39 0 -33
-35 -116 -52 -123 -4 -2 -8 -10 -8 -18 0 -8 -7 -17 -15 -20 -8 -4 -15 -12 -15
-19 0 -7 -22 -35 -50 -63 -27 -27 -47 -52 -44 -55 19 -19 168 58 214 110 42
48 52 88 70 281 5 56 14 111 20 122 5 10 10 29 10 42 0 13 8 45 17 71 25 70
65 88 208 95 82 3 126 0 173 -12 35 -9 95 -16 133 -16 69 0 186 22 222 41 30
16 50 -8 42 -50 -4 -20 -11 -40 -16 -46 -5 -5 -9 -19 -9 -32 0 -23 -38 -106
-52 -111 -4 -2 -8 -9 -8 -16 0 -12 -122 -136 -133 -136 -10 0 -107 -100 -107
-110 0 -6 -5 -10 -10 -10 -6 0 -15 -10 -20 -22 -6 -13 -14 -30 -18 -38 -41
-73 -42 -80 -42 -248 0 -184 0 -184 -70 -253 -68 -68 -234 -159 -290 -159 -13
0 -19 -4 -14 -11 17 -28 242 31 295 77 8 8 18 14 22 14 8 0 100 62 108 73 12
16 64 3 67 -17 3 -11 10 -26 18 -34 8 -7 14 -24 14 -37 0 -13 5 -25 11 -27 11
-4 24 -74 40 -228 5 -58 14 -113 19 -122 5 -9 13 -36 16 -58 20 -125 33 132
14 285 -11 94 -61 332 -74 353 -12 20 -24 238 -17 306 7 63 10 71 45 102 21
19 44 34 52 34 8 0 14 4 14 10 0 5 11 12 25 16 14 3 25 10 25 14 0 5 8 11 18
14 47 15 229 230 285 337 36 67 135 115 151 73 3 -9 6 -68 6 -132 0 -84 -4
-125 -15 -146 -8 -15 -15 -35 -15 -43 0 -8 -6 -29 -13 -46 -27 -63 -39 -103
-49 -157 -13 -73 -2 -245 17 -273 8 -12 15 -29 15 -39 0 -9 6 -32 14 -50 8
-18 21 -49 30 -70 9 -20 16 -41 16 -46 0 -6 6 -23 14 -39 8 -15 21 -44 29 -63
9 -19 23 -51 31 -72 9 -20 16 -43 16 -52 0 -9 4 -16 10 -16 5 0 13 -12 16 -27
4 -16 13 -37 20 -48 8 -11 14 -29 14 -41 0 -12 7 -27 15 -34 8 -7 15 -20 15
-30 0 -10 7 -31 15 -46 8 -16 15 -36 15 -45 0 -9 7 -30 15 -45 8 -16 15 -40
15 -55 0 -14 5 -30 10 -35 6 -6 14 -39 19 -75 5 -35 15 -95 21 -134 8 -43 10
-115 7 -187 -3 -64 -2 -119 1 -123 4 -3 14 18 25 47 22 67 33 273 18 378 -18
131 -76 386 -107 473 -8 20 -14 50 -14 65 0 15 -4 32 -9 38 -8 9 -17 47 -41
179 -6 33 -16 74 -22 90 -16 44 -22 420 -8 475 6 25 16 65 22 89 5 24 24 71
42 105 30 59 32 61 66 58 19 -1 39 -7 44 -12 6 -6 20 -10 32 -10 13 0 29 -7
38 -15 8 -8 20 -15 26 -15 21 0 119 -111 141 -159 12 -25 28 -58 35 -73 8 -14
14 -34 14 -45 0 -10 7 -27 15 -37 8 -11 15 -29 15 -40 0 -12 7 -30 15 -40 8
-11 15 -27 15 -37 0 -9 7 -22 15 -29 8 -7 15 -23 15 -36 0 -13 4 -24 9 -24 5
0 13 -12 19 -28 11 -31 121 -152 139 -152 6 0 13 -4 15 -8 5 -12 129 -70 168
-78 19 -3 41 -10 50 -14 8 -5 53 -13 100 -18 47 -6 93 -14 103 -18 40 -15 -6
33 -47 51 -23 10 -54 23 -71 30 -16 7 -56 16 -88 18 -32 3 -64 10 -70 15 -7 5
-24 12 -38 16 -36 8 -109 80 -145 141 -31 53 -74 153 -74 171 0 6 -6 24 -14
40 -8 16 -17 46 -20 67 -9 47 5 54 77 38 67 -15 250 -38 398 -51 64 -5 128
-14 143 -20 15 -5 39 -10 53 -10 14 0 40 -7 58 -16 19 -8 44 -14 56 -12 21 3
20 6 -22 51 -25 26 -49 47 -53 47 -4 0 -22 7 -39 15 -24 10 -83 15 -231 17
-148 2 -200 6 -204 16 -2 6 -16 12 -32 12 -16 0 -35 6 -42 13 -7 8 -26 17 -41
21 -15 3 -27 11 -27 16 0 6 -5 10 -11 10 -28 0 -162 123 -195 179 -10 17 -22
31 -26 31 -4 0 -8 5 -8 10 0 11 -130 140 -141 140 -4 0 -14 6 -21 13 -19 17
-49 35 -78 48 -49 21 -103 98 -119 171 -13 55 3 64 87 48 37 -6 97 -16 135
-20 37 -5 82 -13 100 -19 17 -5 55 -14 82 -19 46 -9 88 -19 215 -52 25 -6 49
-15 55 -21 5 -5 15 -9 22 -9 50 0 223 -122 223 -157 0 -8 7 -21 15 -29 8 -9
15 -27 15 -42 0 -15 10 -36 23 -48 26 -23 133 -58 166 -52 20 3 18 5 -16 23
-51 27 -150 129 -187 194 -6 9 -28 41 -50 72 -23 31 -48 66 -56 79 -8 12 -25
35 -37 52 -24 33 -22 47 8 67 26 16 187 17 202 2 6 -6 22 -11 35 -11 13 0 53
-13 89 -30 35 -16 66 -30 69 -30 2 0 32 -13 66 -28 143 -65 149 -67 238 -66
76 0 90 3 130 29 25 15 56 39 69 51 l24 24 -31 0 c-17 0 -43 -5 -59 -11 -34
-13 -176 -13 -201 0 -9 6 -34 13 -54 16 -21 3 -38 10 -38 15 0 6 -9 10 -20 10
-11 0 -23 7 -26 15 -4 8 -14 15 -24 15 -10 0 -23 7 -30 15 -7 8 -18 15 -26 15
-7 0 -19 6 -26 13 -26 25 -106 40 -228 44 -77 3 -138 0 -160 -7 -19 -6 -75
-15 -125 -20 -49 -5 -124 -14 -165 -20 -82 -13 -207 -7 -224 10 -5 5 -19 10
-29 10 -28 0 -86 37 -127 81 -43 45 -60 66 -60 74 0 3 -9 27 -21 53 -11 26
-24 56 -29 67 -4 11 -18 54 -30 95 -25 85 -44 126 -72 155 -33 34 -145 197
-169 245 -12 25 -30 56 -39 70 -17 24 -106 198 -148 290 l-21 45 0 -60z"/>
<path d="M12750 1769 c-70 -14 -98 -28 -139 -75 -46 -52 -71 -126 -71 -208 0
-214 154 -332 360 -276 64 17 133 88 154 159 37 126 12 257 -63 332 -60 61
-149 86 -241 68z m130 -104 c15 -8 39 -31 52 -52 20 -33 23 -51 23 -128 0 -77
-3 -95 -23 -128 -30 -47 -68 -67 -129 -67 -101 0 -148 62 -148 195 0 93 20
143 68 174 38 25 115 28 157 6z"/>
<path d="M9720 1480 l0 -280 195 0 195 0 0 50 0 50 -140 0 -140 0 0 230 0 230
-55 0 -55 0 0 -280z"/>
<path d="M10200 1480 l0 -280 210 0 210 0 0 50 0 50 -155 0 -155 0 0 70 0 70
140 0 140 0 0 50 0 50 -140 0 -140 0 0 60 0 60 150 0 150 0 0 50 0 50 -205 0
-205 0 0 -280z"/>
<path d="M10885 1743 c-11 -29 -145 -403 -171 -475 l-23 -68 58 0 57 0 21 58
20 57 106 3 105 3 19 -58 20 -58 61 -3 62 -3 -11 28 c-6 15 -47 129 -91 253
-44 124 -84 237 -90 253 -9 26 -13 27 -73 27 -51 0 -64 -3 -70 -17z m110 -227
l33 -106 -74 0 c-41 0 -74 4 -74 8 0 7 48 154 65 201 9 22 15 9 50 -103z"/>
<path d="M11290 1480 l0 -280 55 0 55 0 0 115 0 115 125 0 125 0 0 50 0 50
-125 0 -125 0 0 65 0 65 145 0 145 0 0 50 0 50 -200 0 -200 0 0 -280z"/>
<path d="M12000 1480 l0 -280 50 0 50 0 0 202 c0 123 4 198 9 193 5 -6 59 -95
119 -200 l110 -190 56 -3 56 -3 0 281 0 280 -50 0 -50 0 0 -196 c0 -110 -4
-193 -9 -190 -5 3 -58 91 -117 196 l-109 190 -57 0 -58 0 0 -280z"/>
<path d="M13104 1738 c3 -13 38 -139 78 -280 l73 -258 52 0 51 0 11 48 c5 26
25 122 43 214 18 92 35 168 38 168 3 0 20 -75 38 -168 18 -92 37 -188 43 -214
l11 -48 52 0 53 0 80 280 80 280 -56 0 -57 0 -43 -192 c-24 -106 -46 -200 -48
-208 -3 -8 -18 46 -34 120 -15 74 -35 168 -44 208 l-16 72 -58 0 -58 0 -11
-52 c-6 -29 -23 -116 -37 -193 -27 -145 -35 -177 -40 -160 -2 6 -23 99 -46
208 l-43 197 -59 0 c-57 0 -59 -1 -53 -22z"/>
</g>
</svg>
