<?xml version="1.0" standalone="no"?>
<!DOCTYPE svg PUBLIC "-//W3C//DTD SVG 20010904//EN"
 "http://www.w3.org/TR/2001/REC-SVG-20010904/DTD/svg10.dtd">
<svg version="1.0" xmlns="http://www.w3.org/2000/svg"
 width="1000.000000pt" height="1080.000000pt" viewBox="0 0 1000.000000 1080.000000"
 preserveAspectRatio="xMidYMid meet">
<metadata>
Created by potrace 1.16, written by Peter Selinger 2001-2019
</metadata>
<g transform="translate(0.000000,1080.000000) scale(0.100000,-0.100000)"
fill="#000000" stroke="none">
<path d="M4235 10165 c-3 -8 -7 -22 -10 -30 -5 -18 -38 -20 -67 -4 -20 11 -20
9 -13 -27 4 -22 9 -75 10 -120 2 -68 7 -88 30 -127 35 -61 65 -83 128 -97 71
-14 183 1 211 30 25 25 31 122 13 214 -12 61 -28 76 -83 76 -24 0 -32 18 -15
36 6 5 -6 20 -30 36 -30 21 -39 24 -39 13 0 -26 -26 -28 -76 -6 -56 25 -53 25
-59 6z"/>
<path d="M4032 9929 c-12 -5 -24 -19 -28 -33 -8 -32 22 -95 53 -109 28 -13 29
-24 3 -32 -13 -4 -19 -13 -16 -23 12 -42 26 -140 26 -183 0 -43 -3 -48 -27
-56 -27 -9 -26 -10 39 -42 51 -26 80 -33 130 -34 65 -2 163 26 153 44 -4 5 0
6 8 4 7 -3 21 3 31 14 18 19 17 20 -18 26 -32 7 -37 11 -42 44 -5 34 -10 38
-52 50 -80 21 -135 104 -165 251 -15 71 -46 97 -95 79z"/>
<path d="M4842 8268 l-2 -86 -39 -7 -38 -6 -7 -61 c-3 -34 -6 -114 -6 -179 0
-102 -2 -119 -17 -128 -74 -43 202 33 437 121 137 51 198 68 171 50 -8 -6 -10
-15 -6 -22 5 -9 4 -11 -3 -6 -14 8 -42 -54 -42 -92 0 -14 -10 -45 -21 -69 -12
-24 -18 -47 -15 -50 3 -4 21 1 40 10 26 12 38 27 52 64 34 92 53 85 35 -14
-11 -62 -10 -75 12 -148 23 -80 23 -80 55 -77 23 1 32 -2 32 -13 0 -8 4 -15
10 -15 12 0 40 53 40 75 0 9 5 13 10 10 6 -3 10 -17 10 -30 0 -12 6 -25 13
-28 11 -4 16 -54 21 -219 4 -117 29 -769 56 -1448 26 -679 48 -1236 47 -1237
-1 -1 -85 -13 -187 -27 -272 -38 -247 -31 -242 -66 3 -20 10 -30 22 -30 10 0
190 27 401 60 211 33 389 60 396 60 8 0 13 12 13 31 0 28 -2 30 -27 25 -58
-11 -264 -38 -267 -35 -6 6 -118 3121 -113 3126 3 2 8 -10 12 -27 4 -19 15
-34 26 -37 10 -3 21 -14 24 -24 6 -19 43 -45 52 -36 2 3 13 41 24 84 10 43 26
108 35 146 9 37 14 87 12 110 -12 106 -100 231 -181 257 -37 12 -164 15 -196
5 -14 -4 -558 -91 -616 -98 -18 -2 -20 5 -26 83 l-5 85 -2 -87z"/>
<path d="M3417 7658 c-33 -166 -40 -277 -34 -528 8 -360 49 -742 132 -1225 51
-301 65 -448 65 -699 l0 -180 -100 -151 -100 -151 15 -43 c21 -59 68 -121 125
-165 33 -26 50 -46 52 -64 3 -24 12 -30 88 -57 79 -27 95 -29 230 -29 85 0
162 5 186 12 41 12 41 12 47 70 4 31 9 109 13 172 l6 115 83 80 c759 730 788
760 855 899 46 97 70 204 70 313 0 214 -56 569 -155 978 -19 77 -54 239 -80
360 -61 298 -56 279 -69 226 -6 -24 -18 -48 -26 -52 -13 -7 -256 -40 -510 -69
-198 -22 -305 -27 -465 -21 -148 6 -175 10 -213 29 -67 35 -121 96 -162 184
l-37 79 -16 -83z m884 -1465 l59 -178 -25 -35 c-13 -19 -47 -60 -75 -90 l-51
-55 5 85 c3 47 9 169 12 273 4 103 9 185 12 183 2 -3 31 -85 63 -183z"/>
<path d="M7250 6431 c-86 -60 -224 -211 -299 -327 -154 -235 -211 -449 -211
-786 0 -186 19 -333 65 -514 65 -252 180 -500 327 -701 21 -29 38 -54 38 -57
0 -2 -31 9 -69 25 -130 55 -229 73 -401 73 -205 1 -309 -24 -330 -79 -14 -36
2 -69 60 -125 l49 -48 -167 -6 c-92 -4 -190 -9 -219 -12 l-52 -5 -30 -65 c-28
-59 -195 -314 -207 -314 -13 0 -191 117 -232 152 -42 37 -120 128 -141 166 -7
12 -37 9 -190 -17 -152 -26 -208 -31 -345 -31 -225 0 -532 34 -782 85 l-31 7
-12 -192 c-7 -106 -19 -213 -26 -237 -31 -102 -150 -242 -223 -262 -53 -15
-85 6 -121 81 -46 95 -63 175 -59 281 2 84 -9 169 -58 413 -5 26 -16 31 -91
39 l-59 7 -12 -53 c-25 -110 -160 -348 -214 -378 -23 -13 -29 -13 -51 2 -36
23 -75 113 -99 225 -11 53 -22 103 -24 110 -2 7 -19 -4 -41 -28 -43 -48 -196
-127 -313 -161 -67 -20 -99 -22 -305 -23 l-230 -2 -92 -31 c-91 -32 -179 -73
-280 -132 -41 -24 -53 -28 -62 -17 -8 9 -3 18 20 35 17 13 68 56 113 95 302
267 540 413 893 547 86 33 176 71 199 84 70 41 131 110 174 198 53 109 74 193
68 283 -6 87 -28 127 -86 156 -38 18 -56 20 -125 15 -49 -3 -112 -16 -157 -31
-41 -14 -76 -26 -77 -26 -1 0 27 43 63 95 113 168 229 425 261 580 14 70 15
93 6 139 -16 75 -36 101 -100 132 -72 36 -175 42 -297 20 -178 -34 -309 -102
-448 -234 -186 -177 -324 -412 -441 -748 -48 -138 -112 -378 -123 -463 -4 -28
-10 -51 -13 -51 -4 0 -17 21 -30 47 -125 259 -454 539 -645 551 -56 4 -63 2
-86 -23 -23 -25 -25 -33 -24 -128 2 -185 76 -435 199 -674 40 -79 72 -143 71
-143 -2 0 -33 13 -69 30 -164 74 -371 108 -555 90 -218 -21 -270 -78 -171
-185 44 -48 184 -147 265 -188 70 -35 230 -90 347 -118 53 -12 97 -26 97 -29
0 -4 -28 -20 -62 -36 -92 -43 -138 -80 -138 -108 0 -15 7 -27 18 -30 9 -3 112
-8 228 -10 328 -8 489 -38 669 -126 128 -62 212 -124 283 -212 70 -87 123
-128 215 -166 115 -48 203 -57 382 -43 388 32 567 -1 768 -142 146 -103 452
-243 671 -307 180 -52 258 -61 546 -65 298 -3 391 -12 635 -58 144 -27 194
-31 325 -32 185 0 231 10 510 117 456 173 757 258 1095 308 241 36 668 115
897 166 418 93 611 178 780 344 78 77 81 82 161 264 59 133 238 172 510 112
66 -14 123 -24 128 -20 20 12 7 43 -32 78 -120 109 -346 212 -556 255 l-96 20
-40 -20 c-45 -24 -93 -42 -187 -71 -57 -18 -93 -21 -295 -22 l-230 -1 -98 -34
c-53 -18 -148 -62 -210 -96 -94 -53 -113 -60 -121 -48 -6 11 -3 19 8 25 9 5
73 59 143 120 305 264 529 399 880 532 172 66 240 104 295 166 94 105 160 310
138 430 -12 65 -34 98 -81 123 -48 26 -188 18 -286 -16 -40 -14 -73 -23 -73
-21 0 3 24 39 54 82 100 143 213 381 257 537 21 76 25 188 8 232 -14 38 -46
71 -94 96 -35 19 -55 22 -165 21 -133 0 -202 -14 -315 -61 -267 -112 -507
-411 -669 -832 l-43 -112 -6 188 c-10 281 -42 469 -118 698 -79 236 -216 477
-356 623 l-68 71 -55 -38z m-802 -3076 c7 -50 -179 -257 -360 -402 -124 -98
-173 -152 -239 -264 -46 -77 -67 -99 -73 -78 -2 8 -10 38 -19 67 -15 52 -15
57 8 137 46 158 112 274 209 367 114 110 307 201 416 196 47 -3 55 -6 58 -23z
m-1166 -700 l86 -17 56 -63 c31 -35 86 -83 123 -107 l67 -43 -335 -7 c-206 -5
-370 -4 -429 2 -190 20 -420 87 -420 123 0 47 124 94 320 123 124 18 413 12
532 -11z"/>
<path d="M6269 3307 c-155 -89 -287 -212 -383 -359 -61 -93 -106 -183 -106
-210 0 -38 26 -14 55 49 95 213 294 419 490 509 53 24 67 46 34 52 -8 1 -48
-17 -90 -41z"/>
<path d="M0 400 l0 -400 5000 0 5000 0 0 400 0 400 -5000 0 -5000 0 0 -400z
m1395 106 c25 -11 33 -19 29 -30 -7 -19 -5 -19 -40 -1 -36 18 -55 19 -78 2
-28 -21 -9 -45 49 -62 87 -25 108 -74 54 -127 -29 -29 -33 -30 -90 -25 -68 6
-72 8 -64 29 5 13 12 14 40 5 50 -15 100 1 100 33 0 16 -8 28 -25 36 -87 40
-105 51 -108 67 -14 70 53 106 133 73z m587 -48 l3 -62 36 32 c20 18 45 32 55
32 14 0 9 -9 -21 -40 l-39 -40 42 -60 c40 -57 41 -60 20 -60 -16 0 -32 14 -53
45 -16 25 -33 45 -37 45 -5 0 -8 -20 -8 -45 0 -38 -3 -45 -20 -45 -19 0 -20 7
-20 130 0 122 1 130 20 130 16 0 19 -8 22 -62z m-1353 -24 c12 -15 21 -40 21
-55 0 -29 0 -29 -65 -29 -72 0 -83 -12 -44 -51 17 -17 30 -20 65 -16 43 4 59
-5 28 -17 -45 -17 -106 3 -123 41 -45 98 56 206 118 127z m456 3 c20 -16 28
-35 32 -69 5 -42 3 -50 -25 -78 -41 -41 -83 -41 -124 0 -28 28 -30 36 -25 78
9 82 84 119 142 69z m622 8 c30 -21 44 -75 32 -120 -25 -88 -143 -88 -168 0
-20 72 20 135 84 135 17 0 40 -7 52 -15z"/>
<path d="M986 424 c-50 -50 -21 -144 44 -144 48 0 80 50 66 104 -13 53 -75 75
-110 40z"/>
</g>
</svg>
